<?xml version="1.0" encoding="UTF-8"?>
<svg
  xmlns="http://www.w3.org/2000/svg"
  width="20"
  height="20"
  viewBox="0 0 20 20"
  fill="none">
    <path d="M11.6596 3.33203C11.9602 3.33203 12.2551 3.41332 12.5132 3.5673C12.7713 3.72128 12.9829 3.94222 13.1257 4.20669L13.5305 4.9564C13.6733 5.22087 13.8849 5.4418 14.143 5.59578C14.4011 5.74976 14.6961 5.83106 14.9966 5.83105H16.6602C17.102 5.83105 17.5258 6.00658 17.8382 6.31902C18.1506 6.63146 18.3262 7.05522 18.3262 7.49707V14.9941C18.3262 15.436 18.1506 15.8598 17.8382 16.1722C17.5258 16.4846 17.102 16.6602 16.6602 16.6602H3.33203C2.89018 16.6602 2.46642 16.4846 2.15398 16.1722C1.84154 15.8598 1.66602 15.436 1.66602 14.9941V7.49707C1.66602 7.05522 1.84154 6.63146 2.15398 6.31902C2.46642 6.00658 2.89018 5.83105 3.33203 5.83105H4.99555C5.29578 5.83107 5.59044 5.74996 5.84837 5.59629C6.10629 5.44261 6.3179 5.2221 6.46081 4.95806L6.86815 4.20502C7.01106 3.94098 7.22267 3.72047 7.48059 3.5668C7.73852 3.41313 8.03318 3.33201 8.33341 3.33203H11.6596Z" stroke="#364153" stroke-width="1.66602" stroke-linecap="round" stroke-linejoin="round"/>
    <path d="M9.99609 13.3281C11.3763 13.3281 12.4951 12.2093 12.4951 10.8291C12.4951 9.44893 11.3763 8.33008 9.99609 8.33008C8.61592 8.33008 7.49707 9.44893 7.49707 10.8291C7.49707 12.2093 8.61592 13.3281 9.99609 13.3281Z" stroke="#364153" stroke-width="1.66602" stroke-linecap="round" stroke-linejoin="round"/>
</svg>
