<?xml version="1.0" encoding="UTF-8"?>
<svg
  xmlns="http://www.w3.org/2000/svg"
  width="20"
  height="20"
  viewBox="0 0 20 20"
  fill="none">
    <path d="M13.3203 6.66016C13.3203 9.98557 9.63125 13.4489 8.39246 14.5185C8.27706 14.6053 8.13658 14.6522 7.99219 14.6522C7.8478 14.6522 7.70732 14.6053 7.59191 14.5185C6.35312 13.4489 2.66406 9.98557 2.66406 6.66016C2.66406 5.24705 3.22542 3.89182 4.22463 2.8926C5.22385 1.89339 6.57908 1.33203 7.99219 1.33203C9.40529 1.33203 10.7605 1.89339 11.7597 2.8926C12.759 3.89182 13.3203 5.24705 13.3203 6.66016Z" stroke="#364153" stroke-width="1.33203" stroke-linecap="round" stroke-linejoin="round"/>
    <path d="M7.99219 8.6582C9.09568 8.6582 9.99023 7.76365 9.99023 6.66016C9.99023 5.55667 9.09568 4.66211 7.99219 4.66211C6.8887 4.66211 5.99414 5.55667 5.99414 6.66016C5.99414 7.76365 6.8887 8.6582 7.99219 8.6582Z" stroke="#364153" stroke-width="1.33203" stroke-linecap="round" stroke-linejoin="round"/>
</svg>