<?xml version="1.0" encoding="UTF-8"?>
<svg
  xmlns="http://www.w3.org/2000/svg"
  width="20"
  height="20"
  viewBox="0 0 16 16"
  fill="none">
    <path d="M9.21233 11.0345C9.34988 11.0977 9.50484 11.1121 9.65169 11.0755C9.79854 11.0388 9.92852 10.9532 10.0202 10.8327L10.2566 10.523C10.3807 10.3576 10.5416 10.2233 10.7266 10.1309C10.9115 10.0384 11.1155 9.99023 11.3223 9.99023H13.3203C13.6736 9.99023 14.0124 10.1306 14.2622 10.3804C14.512 10.6302 14.6523 10.969 14.6523 11.3223V13.3203C14.6523 13.6736 14.512 14.0124 14.2622 14.2622C14.0124 14.512 13.6736 14.6523 13.3203 14.6523C10.1408 14.6523 7.09156 13.3893 4.84332 11.1411C2.59508 8.89282 1.33203 5.84355 1.33203 2.66406C1.33203 2.31079 1.47237 1.97198 1.72217 1.72217C1.97198 1.47237 2.31079 1.33203 2.66406 1.33203H4.66211C5.01539 1.33203 5.35419 1.47237 5.604 1.72217C5.8538 1.97198 5.99414 2.31079 5.99414 2.66406V4.66211C5.99414 4.8689 5.94599 5.07285 5.85351 5.25781C5.76103 5.44277 5.62676 5.60366 5.46133 5.72773L5.14963 5.96151C5.02736 6.05487 4.94118 6.18768 4.90573 6.33737C4.87028 6.48707 4.88774 6.64442 4.95516 6.7827C5.86539 8.63147 7.36242 10.1266 9.21233 11.0345Z" stroke="#364153" stroke-width="1.33203" stroke-linecap="round" stroke-linejoin="round"/>
    </svg>
